<svg id="Layer_1" height="512" viewBox="0 0 128 128" width="512" xmlns="http://www.w3.org/2000/svg" xmlns:xlink="http://www.w3.org/1999/xlink" data-name="Layer 1"><linearGradient id="linear-gradient" gradientUnits="userSpaceOnUse" x1="106.625" x2="21.375" y1="126.85" y2="41.6"><stop offset="0" stop-color="#7540aa"/><stop offset="1" stop-color="#5eca74"/></linearGradient><path d="m117.25 115.5a1.75 1.75 0 0 1 -1.75 1.75h-.75a1.75 1.75 0 0 1 0-3.5h.75a1.75 1.75 0 0 1 1.75 1.75zm-7.25 0a1.75 1.75 0 0 1 -1.75 1.75h-95.75a1.75 1.75 0 0 1 0-3.5h22.76a9.693 9.693 0 0 1 -1.458-2.386l-3.171-7.437a10.309 10.309 0 0 1 1.269-10.261l10.9-14.331a44.332 44.332 0 0 0 8.992-26.681v-8.854h-3.934a1.75 1.75 0 0 1 -1.75-1.75v-9.736a1.75 1.75 0 0 1 1.75-1.75h22.721l1.042-4.222h-9.842a1.75 1.75 0 0 1 0-3.5h10.707l1.94-7.857a57.133 57.133 0 0 0 -10.426-.735 57.133 57.133 0 0 0 -10.425.736l.438 1.773h5.119a1.75 1.75 0 0 1 0 3.5h-4.255l1.169 4.734a1.75 1.75 0 1 1 -3.4.839l-2.8-11.346a1.761 1.761 0 0 1 -.051-.419c0-1.24 0-3.316 14.2-3.316s14.2 2.076 14.2 3.316a1.761 1.761 0 0 1 -.051.419l-3.959 16.078h5.957a1.75 1.75 0 0 1 1.75 1.75v9.736a1.75 1.75 0 0 1 -1.75 1.75h-24.847v8.853a47.87 47.87 0 0 1 -5.9 22.916 12.024 12.024 0 0 0 4.435.645 1.75 1.75 0 0 1 .1 3.5c-.186 0-.37.008-.553.008a14.949 14.949 0 0 1 -5.809-1.091c-.626.963-1.282 1.907-1.978 2.823l-10.9 14.331a6.8 6.8 0 0 0 -.841 6.771l3.171 7.437a6.176 6.176 0 0 0 5.689 3.759h42.581a6.176 6.176 0 0 0 5.689-3.759l3.171-7.437a6.8 6.8 0 0 0 -.841-6.77l-10.9-14.331a47.576 47.576 0 0 1 -6.818-12.546 22.7 22.7 0 0 1 -8.553 7.42 1.75 1.75 0 1 1 -1.629-3.1c5.82-3.061 8.86-7.606 8.438-10.232-.007-.041-.011-.09-.016-.138a47.329 47.329 0 0 1 -1.128-10.205v-4.966a1.75 1.75 0 0 1 3.5 0v4.966a44.332 44.332 0 0 0 8.997 26.681l10.9 14.331a10.308 10.308 0 0 1 1.274 10.261l-3.174 7.437a9.693 9.693 0 0 1 -1.458 2.386h15.51a1.75 1.75 0 0 1 1.748 1.75zm-60.392-75.2h28.784v-6.236h-28.784zm10.692 38.507a1.757 1.757 0 0 0 .44-.056c.229-.06.458-.122.684-.186a1.75 1.75 0 0 0 -.955-3.367q-.3.086-.607.165a1.75 1.75 0 0 0 .438 3.445zm-8.667 18.93a2.031 2.031 0 0 1 -2.029-2.029 1.75 1.75 0 0 0 -3.5 0 5.529 5.529 0 1 0 5.529-5.529 1.75 1.75 0 0 0 0 3.5 2.029 2.029 0 1 1 0 4.059zm22.167-11.355a5.529 5.529 0 1 1 -5.529-5.529 5.536 5.536 0 0 1 5.529 5.529zm-3.5 0a2.029 2.029 0 1 0 -2.029 2.029 2.031 2.031 0 0 0 2.029-2.029zm0 16.651a6.618 6.618 0 1 1 6.618 6.618 6.625 6.625 0 0 1 -6.618-6.618zm3.5 0a3.118 3.118 0 1 0 3.118-3.118 3.122 3.122 0 0 0 -3.118 3.118z" fill="url(#linear-gradient)"/></svg>